<?xml version="1.0" standalone="no"?><!DOCTYPE svg PUBLIC "-//W3C//DTD SVG 1.1//EN" "http://www.w3.org/Graphics/SVG/1.1/DTD/svg11.dtd"><svg class="icon" width="200px" height="199.80px" viewBox="0 0 1025 1024" version="1.1" xmlns="http://www.w3.org/2000/svg"><path fill="#1890ff" d="M925 847H499a40 40 0 0 1 0-80h426a20 20 0 0 0 20-20V361a20 20 0 0 0-20-20H101a40 40 0 0 1 0-80h824a100 100 0 0 1 100 100v386a100 100 0 0 1-100 100z"  /><path fill="#1890ff" d="M243 521a40 40 0 0 1-27-10L17 332a40 40 0 0 1 1-60l199-171a40 40 0 0 1 52 61L105 303l165 148a40 40 0 0 1-27 70z"  /></svg>