<svg t="1681697313069" class="icon" viewBox="0 0 1024 1024" version="1.1" xmlns="http://www.w3.org/2000/svg" p-id="4711" width="200" height="200"><path d="M512 93.090909c230.4 0 418.909091 188.509091 418.909091 418.909091s-188.509091 418.909091-418.909091 418.909091S93.090909 742.4 93.090909 512 281.6 93.090909 512 93.090909m0-93.090909C228.072727 0 0 228.072727 0 512s228.072727 512 512 512 512-228.072727 512-512S795.927273 0 512 0z" fill="#5370FF" p-id="4712"></path><path d="M674.909091 744.727273c-13.963636 0-25.6-4.654545-34.909091-16.290909l-162.909091-186.181819c-6.981818-6.981818-11.636364-18.618182-11.636364-30.254545V279.272727c0-25.6 20.945455-46.545455 46.545455-46.545454s46.545455 20.945455 46.545455 46.545454v214.109091l151.272727 172.218182c16.290909 18.618182 13.963636 48.872727-4.654546 65.163636-9.309091 9.309091-18.618182 13.963636-30.254545 13.963637z" fill="#5370FF" p-id="4713"></path></svg>